<svg xmlns="http://www.w3.org/2000/svg" width="791.858" height="293.24" viewBox="0 0 791.858 293.24">
  <g id="blog" transform="translate(-4125.2 -2862.123)">
    <path id="Path_142" data-name="Path 142" d="M4603.26,3064.177h-27.738a9.246,9.246,0,0,1-9.246-9.246h0a9.246,9.246,0,0,1,9.246-9.247h27.738a9.246,9.246,0,0,1,9.246,9.247h0A9.246,9.246,0,0,1,4603.26,3064.177Z" fill="#1b772e"/>
    <g id="Group_92" data-name="Group 92">
      <path id="Path_143" data-name="Path 143" d="M4909.03,3129.219h-775.8c-4.434,0-8.028-2.927-8.028-6.536h0c0-3.61,3.594-6.536,8.028-6.536h775.8c4.434,0,8.028,2.926,8.028,6.536h0C4917.058,3126.292,4913.464,3129.219,4909.03,3129.219Z" fill="#0e1e19"/>
      <path id="Path_144" data-name="Path 144" d="M4818.957,3155.363H4223.3c-4.434,0-8.028-2.926-8.028-6.536h0c0-3.61,3.594-6.536,8.028-6.536h595.656c4.434,0,8.028,2.926,8.028,6.536h0C4826.985,3152.437,4823.391,3155.363,4818.957,3155.363Z" fill="#0e1e19"/>
      <path id="Path_145" data-name="Path 145" d="M4681.3,3136.074h0c0-3.61,3.6-6.536,8.028-6.536h-336.4c4.434,0,8.028,2.926,8.028,6.536s-3.594,6.536-8.028,6.536h336.4C4684.9,3142.61,4681.3,3139.683,4681.3,3136.074Z" fill="#0e1e19"/>
    </g>
    <g id="Group_93" data-name="Group 93">
      <path id="Path_146" data-name="Path 146" d="M4745.948,2976.62c-2.392,4.143-10.568,3.9-18.262-.542s-11.992-11.4-9.6-15.544,10.568-3.9,18.262.541S4748.34,2972.477,4745.948,2976.62Z" fill="#fff" opacity="0.21"/>
      <path id="Path_147" data-name="Path 147" d="M4779.119,3042.4l-15.8-14.1a55.763,55.763,0,1,0-10.338,9.966l14.273,16a8.4,8.4,0,0,0,12.215.348h0A8.4,8.4,0,0,0,4779.119,3042.4Zm-103.235-48.959a43.872,43.872,0,1,1,75.652,30.244l-1.537,1.536a43.871,43.871,0,0,1-74.115-31.78Z" fill="#ffba11"/>
    </g>
    <g id="Group_94" data-name="Group 94">
      <path id="Path_148" data-name="Path 148" d="M4349.765,2862.123h-45.274a1.6,1.6,0,0,0-1.594,1.594v32.521a1.6,1.6,0,0,0,1.594,1.594h29.828l5.881,10.275v-10.275h9.565a1.6,1.6,0,0,0,1.594-1.594v-32.521A1.6,1.6,0,0,0,4349.765,2862.123Z" fill="#ffba11"/>
      <path id="Path_149" data-name="Path 149" d="M4280.26,2866.906h45.274a1.6,1.6,0,0,1,1.594,1.594v32.521a1.6,1.6,0,0,1-1.594,1.594h-29.828l-5.881,10.274v-10.274h-9.565a1.6,1.6,0,0,1-1.595-1.594V2868.5A1.6,1.6,0,0,1,4280.26,2866.906Z" fill="#1b772e"/>
    </g>
    <g id="Group_95" data-name="Group 95">
      <path id="Path_150" data-name="Path 150" d="M4234.433,3038.989a1.6,1.6,0,0,0-1.594-1.594h-94.693a1.6,1.6,0,0,0-1.6,1.594v11.8h97.882Z" fill="#ffba11"/>
      <path id="Path_151" data-name="Path 151" d="M4136.551,3050.786v63.129a1.6,1.6,0,0,0,1.6,1.594h94.693a1.6,1.6,0,0,0,1.594-1.594v-63.129Z" fill="#ecebeb"/>
      <rect id="Rectangle_51" data-name="Rectangle 51" width="85.128" height="51.97" rx="3.188" transform="translate(4142.928 3057.162)" fill="#0d1e47"/>
      <path id="Path_152" data-name="Path 152" d="M4179.275,3077.249l12.753,6.377L4179.275,3090Z" fill="#ecebeb"/>
      <path id="Path_153" data-name="Path 153" d="M4224.868,3057.162h-26.5c-9.939,17.289-20.878,36.3-29.915,51.97h56.417a3.188,3.188,0,0,0,3.188-3.188v-45.593A3.189,3.189,0,0,0,4224.868,3057.162Z" fill="#ecebeb" opacity="0.21"/>
      <path id="Path_154" data-name="Path 154" d="M4226.781,3044.09a1.276,1.276,0,1,1,1.275,1.276A1.276,1.276,0,0,1,4226.781,3044.09Z" fill="#ecebeb"/>
      <path id="Path_155" data-name="Path 155" d="M4220.4,3044.09a1.276,1.276,0,1,1,1.276,1.276A1.276,1.276,0,0,1,4220.4,3044.09Z" fill="#ecebeb"/>
      <circle id="Ellipse_13" data-name="Ellipse 13" cx="1.275" cy="1.275" r="1.275" transform="translate(4214.028 3042.815)" fill="#ecebeb"/>
    </g>
    <g id="Group_96" data-name="Group 96">
      <rect id="Rectangle_52" data-name="Rectangle 52" width="89.911" height="63.129" rx="5" transform="translate(4802.395 3052.38)" fill="#344952"/>
      <path id="Path_156" data-name="Path 156" d="M4891.652,3053.509l-43.173,43.173a1.606,1.606,0,0,1-2.258,0l-43.173-43.173a1.607,1.607,0,0,1,0-2.258l6.361-6.36,36.812-36.813a1.6,1.6,0,0,1,2.258,0l36.812,36.813,6.361,6.36A1.6,1.6,0,0,1,4891.652,3053.509Z" fill="#0d1e47"/>
      <path id="Path_157" data-name="Path 157" d="M4893.262,3012.207a7.971,7.971,0,0,0-7.971,7.971h15.942A7.971,7.971,0,0,0,4893.262,3012.207Z" fill="#afccd7"/>
      <path id="Path_158" data-name="Path 158" d="M4893.262,3012.207a7.97,7.97,0,0,0-7.971,7.971v39.691l-36.812,36.813a1.606,1.606,0,0,1-2.258,0l-36.812-36.813v-39.691a7.97,7.97,0,0,1,7.971-7.971Z" fill="#ecebeb"/>
      <rect id="Rectangle_53" data-name="Rectangle 53" width="9.565" height="9.565" transform="translate(4821.524 3032.612)" fill="#afccd7"/>
      <rect id="Rectangle_54" data-name="Rectangle 54" width="50.694" height="0.638" transform="translate(4822.162 3046.96)" fill="#afccd7"/>
      <rect id="Rectangle_55" data-name="Rectangle 55" width="50.694" height="0.638" transform="translate(4822.162 3050.148)" fill="#afccd7"/>
      <rect id="Rectangle_56" data-name="Rectangle 56" width="50.694" height="0.638" transform="translate(4822.162 3053.336)" fill="#afccd7"/>
      <rect id="Rectangle_57" data-name="Rectangle 57" width="50.694" height="0.638" transform="translate(4822.162 3056.525)" fill="#afccd7"/>
      <rect id="Rectangle_58" data-name="Rectangle 58" width="50.694" height="0.638" transform="translate(4822.162 3059.713)" fill="#afccd7"/>
      <rect id="Rectangle_59" data-name="Rectangle 59" width="50.694" height="0.638" transform="translate(4822.162 3062.901)" fill="#afccd7"/>
      <rect id="Rectangle_60" data-name="Rectangle 60" width="50.694" height="0.638" transform="translate(4822.162 3066.09)" fill="#afccd7"/>
    </g>
    <g id="Group_104" data-name="Group 104">
      <g id="Group_97" data-name="Group 97">
        <path id="Path_159" data-name="Path 159" d="M4815.264,2961.4h8.608v-21.043l-8.608,8.609Z" fill="#1b772e"/>
      </g>
      <g id="Group_98" data-name="Group 98">
        <path id="Path_160" data-name="Path 160" d="M4828.018,2936.208V2961.4h8.608v-21.362l-6.217-6.217Z" fill="#ecebeb"/>
      </g>
      <g id="Group_99" data-name="Group 99">
        <path id="Path_161" data-name="Path 161" d="M4844.79,2948.2l-4.019-4.019V2961.4h8.608v-17.788Z" fill="#1b772e"/>
      </g>
      <g id="Group_103" data-name="Group 103">
        <g id="Group_100" data-name="Group 100">
          <path id="Path_162" data-name="Path 162" d="M4807.915,2956.279l-3.157-3.156,25.65-25.65,14.381,14.381,29.349-29.349,3.156,3.156-32.5,32.505-14.381-14.381Z" fill="#ffba11"/>
        </g>
        <g id="Group_102" data-name="Group 102">
          <g id="Group_101" data-name="Group 101">
            <path id="Path_163" data-name="Path 163" d="M4874.97,2925.531l0-10.705-10.7,0,4.543-4.543h10.7v10.7Z" fill="#ffba11"/>
          </g>
        </g>
      </g>
    </g>
    <path id="Path_164" data-name="Path 164" d="M4825.829,2890.3h-12.116a3.347,3.347,0,1,1,0-6.695h12.116a3.348,3.348,0,1,0,0-6.7h-67.912a3.348,3.348,0,0,0,0,6.7h34.434a3.347,3.347,0,1,1,0,6.695h-15.3a3.348,3.348,0,0,0,0,6.7h48.782a3.348,3.348,0,0,0,0-6.7Z" fill="#ecebeb"/>
    <path id="Path_165" data-name="Path 165" d="M4230.478,2960.729h-2.55a3.348,3.348,0,1,1,0-6.7h2.55a3.348,3.348,0,1,0,0-6.7h-29.651a3.348,3.348,0,1,0,0,6.7h5.739a3.348,3.348,0,1,1,0,6.7H4181.7a3.348,3.348,0,1,0,0,6.7h48.781a3.348,3.348,0,1,0,0-6.7Z" fill="#ecebeb"/>
    <g id="Group_108" data-name="Group 108">
      <g id="Group_107" data-name="Group 107">
        <path id="Rectangle_61" data-name="Rectangle 61" d="M30,0H234.632a30,30,0,0,1,30,30V208.517a0,0,0,0,1,0,0H0a0,0,0,0,1,0,0V30A30,30,0,0,1,30,0Z" transform="translate(4417.075 2892.963)" fill="#ecebeb"/>
        <rect id="Rectangle_62" data-name="Rectangle 62" width="189.387" height="245.501" rx="10" transform="translate(4672.142 2902.529) rotate(90)" fill="#0d1e47"/>
        <g id="Group_105" data-name="Group 105">
          <path id="Path_166" data-name="Path 166" d="M4612.679,3008.062H4486.1a1.6,1.6,0,0,1-1.6-1.594h0a1.594,1.594,0,0,1,1.6-1.594h126.576a1.594,1.594,0,0,1,1.595,1.594h0A1.6,1.6,0,0,1,4612.679,3008.062Z" fill="#fff"/>
          <path id="Path_167" data-name="Path 167" d="M4606.159,3017.627H4492.623a1.6,1.6,0,0,1-1.594-1.594h0a1.6,1.6,0,0,1,1.594-1.594h113.536a1.594,1.594,0,0,1,1.594,1.594h0A1.594,1.594,0,0,1,4606.159,3017.627Z" fill="#fff"/>
          <path id="Path_168" data-name="Path 168" d="M4597.9,3027.192h-97.016a1.594,1.594,0,0,1-1.594-1.594h0a1.594,1.594,0,0,1,1.594-1.594H4597.9a1.6,1.6,0,0,1,1.594,1.594h0A1.6,1.6,0,0,1,4597.9,3027.192Z" fill="#fff"/>
          <path id="Path_169" data-name="Path 169" d="M4582.683,3036.757H4516.1a1.6,1.6,0,0,1-1.6-1.594h0a1.594,1.594,0,0,1,1.6-1.594h66.584a1.594,1.594,0,0,1,1.595,1.594h0A1.6,1.6,0,0,1,4582.683,3036.757Z" fill="#fff"/>
        </g>
        <path id="Path_170" data-name="Path 170" d="M4722.517,3115.828H4376.265a14.348,14.348,0,0,1-14.348-14.348h374.948A14.348,14.348,0,0,1,4722.517,3115.828Z" fill="#afccd7"/>
        <path id="Path_171" data-name="Path 171" d="M4565.558,3108.5h-32.2a7.015,7.015,0,0,1-7.014-7.015h46.231A7.016,7.016,0,0,1,4565.558,3108.5Z" fill="#ecebeb"/>
        <g id="Group_106" data-name="Group 106">
          <path id="Path_172" data-name="Path 172" d="M4486.091,2952.246h13.621c7.5,0,11,3.947,11,8.865a7.789,7.789,0,0,1-5.094,7.733,8.761,8.761,0,0,1,6.261,8.5c0,6.69-5.1,10.4-11.833,10.4h-13.952ZM4498.812,2967c5.143,0,7.147-2.025,7.147-5.488,0-3.141-2.25-5.384-6.419-5.384h-8.831V2967Zm-8.1,16.846h8.768c4.458,0,7.555-2.093,7.555-6.517,0-3.853-2.474-6.441-8.457-6.441h-7.866Z" fill="#fff"/>
          <path id="Path_173" data-name="Path 173" d="M4519.147,2952.246h4.706v31.461h18.513l-.655,4.032h-22.564Z" fill="#fff"/>
          <path id="Path_174" data-name="Path 174" d="M4577.546,2969.792c0,9.762-5.475,18.457-16.656,18.457-10.448,0-16.278-8.075-16.278-18.256,0-10.156,5.951-18.257,16.689-18.257C4571.295,2951.736,4577.546,2959.24,4577.546,2969.792Zm-28.006.048c0,7.671,3.926,14.4,11.557,14.4,8.24,0,11.521-6.791,11.521-14.374,0-7.647-3.719-14.111-11.509-14.111C4553.064,2955.75,4549.54,2962.267,4549.54,2969.84Z" fill="#fff"/>
          <path id="Path_175" data-name="Path 175" d="M4613.679,2987.739h-3.614a20.818,20.818,0,0,1-.448-4.81c-1.546,2.521-4.6,5.291-11.023,5.291-10.236,0-15.671-7.77-15.671-17.867,0-10.626,5.828-18.617,16.539-18.617,8.245,0,13.437,4.463,14.451,10.809h-4.706c-1.205-3.966-4.057-6.886-9.847-6.886-8.241,0-11.509,6.577-11.509,14.469,0,7.313,3.3,14.132,11.314,14.132,7.953,0,9.928-5.292,9.928-11.284v-.372H4599.1v-4.032h14.58Z" fill="#fff"/>
        </g>
      </g>
      <path id="Path_176" data-name="Path 176" d="M4668.953,2902.528h-77.539l-86.6,189.387h164.136a3.189,3.189,0,0,0,3.189-3.188v-183.01A3.189,3.189,0,0,0,4668.953,2902.528Z" fill="#ecebeb" opacity="0.19"/>
    </g>
    <g id="Group_109" data-name="Group 109">
      <rect id="Rectangle_63" data-name="Rectangle 63" width="22.726" height="38.683" transform="translate(4355.261 3023.001)" fill="#fac4bb"/>
      <rect id="Rectangle_64" data-name="Rectangle 64" width="14.867" height="38.683" transform="translate(4355.261 3023.001)" fill="#f3816f"/>
      <path id="Path_177" data-name="Path 177" d="M4369.651,3030.369l-9.117-9.118a9.669,9.669,0,0,1,0-13.676h0l15.956,15.956Z" fill="#fac4bb"/>
      <path id="Path_178" data-name="Path 178" d="M4417.637,3030.738h3.546a3.868,3.868,0,0,0,3.868-3.868h0a3.868,3.868,0,0,0-3.868-3.868h-43.2v38.683h44.808a3.869,3.869,0,0,0,3.868-3.869h0a3.868,3.868,0,0,0-3.868-3.868h-5.158a3.868,3.868,0,0,1-3.868-3.868h0a3.869,3.869,0,0,1,3.868-3.869h9.993a3.868,3.868,0,0,0,3.868-3.868h0a3.868,3.868,0,0,0-3.868-3.868h-9.993a3.869,3.869,0,0,1-3.868-3.869h0A3.868,3.868,0,0,1,4417.637,3030.738Z" fill="#344952"/>
      <path id="Path_179" data-name="Path 179" d="M4434.239,3030.416h-2.9a3.707,3.707,0,0,1-3.707-3.707h0a3.707,3.707,0,0,1,3.707-3.707h2.9a3.707,3.707,0,0,1,3.707,3.707h0A3.707,3.707,0,0,1,4434.239,3030.416Z" fill="#344952"/>
      <path id="Path_180" data-name="Path 180" d="M4442.781,3046.05h-2.9a3.707,3.707,0,0,1-3.707-3.707h0a3.707,3.707,0,0,1,3.707-3.707h2.9a3.707,3.707,0,0,1,3.707,3.707h0A3.707,3.707,0,0,1,4442.781,3046.05Z" fill="#344952"/>
      <path id="Path_181" data-name="Path 181" d="M4369.809,3003.338c-23.636-2.171-51.609,1.679-75.245,23.594v-70.781c23.636,21.914,51.609,25.765,75.245,23.593Z" fill="#ecebeb"/>
      <rect id="Rectangle_65" data-name="Rectangle 65" width="3.507" height="19.768" transform="translate(4390.214 2982.614)" fill="#0d1e47"/>
      <path id="Path_182" data-name="Path 182" d="M4294.564,3031.4h0a5.42,5.42,0,0,1-5.42-5.42v-71.737a5.421,5.421,0,0,1,5.42-5.421h0Z" fill="#1b772e"/>
      <path id="Path_183" data-name="Path 183" d="M4289.144,3002.381h0a3.187,3.187,0,0,1-3.188-3.188V2985.8a3.187,3.187,0,0,1,3.188-3.188h0Z" fill="#ecebeb"/>
      <path id="Path_184" data-name="Path 184" d="M4365.983,3050.844h-5.1v-39.216H4383.2Z" fill="#ecebeb"/>
      <path id="Path_185" data-name="Path 185" d="M4378.3,3022.787l4.9-11.159h-22.318v11.159Z" fill="#c4deee"/>
      <path id="Path_186" data-name="Path 186" d="M4362.191,3061.685H4349.3a4.835,4.835,0,0,1-4.835-4.836h0a4.835,4.835,0,0,1,4.835-4.835h12.894a4.836,4.836,0,0,1,4.836,4.835h0A4.836,4.836,0,0,1,4362.191,3061.685Z" fill="#fac4bb"/>
      <path id="Path_187" data-name="Path 187" d="M4362.191,3052.014H4349.3a4.835,4.835,0,0,1-4.835-4.836h0a4.835,4.835,0,0,1,4.835-4.835h12.894a4.836,4.836,0,0,1,4.836,4.835h0A4.836,4.836,0,0,1,4362.191,3052.014Z" fill="#fac4bb"/>
      <path id="Path_188" data-name="Path 188" d="M4362.191,3042.343H4349.3a4.835,4.835,0,0,1-4.835-4.835h0a4.835,4.835,0,0,1,4.835-4.836h12.894a4.836,4.836,0,0,1,4.836,4.836h0A4.836,4.836,0,0,1,4362.191,3042.343Z" fill="#fac4bb"/>
      <path id="Path_189" data-name="Path 189" d="M4362.191,3032.672H4349.3a4.835,4.835,0,0,1-4.835-4.835h0A4.834,4.834,0,0,1,4349.3,3023h12.894a4.835,4.835,0,0,1,4.836,4.835h0A4.836,4.836,0,0,1,4362.191,3032.672Z" fill="#fac4bb"/>
      <path id="Path_190" data-name="Path 190" d="M4294.564,3026.932c19-17.616,40.8-23.558,60.9-24.084v-12.582h-60.9Z" fill="#c4deee"/>
      <rect id="Rectangle_66" data-name="Rectangle 66" width="40.811" height="40.811" rx="10" transform="translate(4349.403 2971.136)" fill="#1b772e"/>
      <path id="Path_191" data-name="Path 191" d="M4378.1,2981.02h-15.622a.957.957,0,0,1-.957-.957h0a.956.956,0,0,1,.957-.956H4378.1a.956.956,0,0,1,.957.956h0A.957.957,0,0,1,4378.1,2981.02Z" fill="#ecebeb"/>
    </g>
  </g>
</svg>
