<svg xmlns="http://www.w3.org/2000/svg" width="20.25" height="20.25" viewBox="0 0 20.25 20.25">
  <g id="call" transform="translate(-1334.4 -17.673)">
    <path id="Path_581" data-name="Path 581" d="M1341,21.024a.99.99,0,0,0-.612.237c-.2.157-.386.335-.587.493a4,4,0,0,0-1.054,1.24,4.627,4.627,0,0,0-.39,3.341,8.37,8.37,0,0,0,1.074,2.521,16.181,16.181,0,0,0,1.945,2.531,11.666,11.666,0,0,0,3.055,2.476,5.553,5.553,0,0,0,2.21.687.189.189,0,0,0,.066.009h.113c.024,0,.047,0,.071,0a.153.153,0,0,1,.072.015h.477c.009-.022.027-.024.045-.024h.023a4.065,4.065,0,0,0,1.642-.527,8.3,8.3,0,0,0,1.426-1.17.834.834,0,0,0,.2-.293.917.917,0,0,0-.141-.92,4.717,4.717,0,0,0-.911-.934,6.148,6.148,0,0,0-1.146-.842,1.537,1.537,0,0,0-.711-.191,1.383,1.383,0,0,0-.9.364c-.27.229-.528.468-.774.721a.955.955,0,0,1-.7.309,1.213,1.213,0,0,1-.262-.03,2.753,2.753,0,0,1-1.16-.652,10.955,10.955,0,0,1-1.871-2.077,3.6,3.6,0,0,1-.655-1.354,1.018,1.018,0,0,1,.409-1.116,8.32,8.32,0,0,0,.9-.753,1.224,1.224,0,0,0,.362-.631,1.772,1.772,0,0,0-.2-1.16,10.563,10.563,0,0,0-.8-1.32,3.64,3.64,0,0,0-.543-.646.98.98,0,0,0-.672-.3Z" fill="#18352d"/>
    <circle id="Ellipse_38" data-name="Ellipse 38" cx="10" cy="10" r="10" transform="translate(1334.525 17.798)" fill="none" stroke="#18352d" stroke-width="0.25"/>
  </g>
</svg>
