<svg xmlns="http://www.w3.org/2000/svg" width="139.781" height="139.781" viewBox="0 0 139.781 139.781">
  <g id="Distribution" transform="translate(-1063.801 -1878.746)">
    <circle id="Ellipse_36" data-name="Ellipse 36" cx="69.39" cy="69.39" r="69.39" transform="translate(1064.301 1879.246)" fill="none" stroke="#ffbe00" stroke-width="1"/>
    <g id="Group_532" data-name="Group 532">
      <path id="Path_543" data-name="Path 543" d="M1185.053,1950.647a12.36,12.36,0,0,0-5.929-3.461c-.424-.109-.947-.208-.831-.8a13.156,13.156,0,0,0-.072-3.112,39.859,39.859,0,0,0-5.162-18.061,2.279,2.279,0,0,1-.1-2.351,20.524,20.524,0,0,0-13.161-28.747c-.946-.247-1.928-.136-2.873-.351h-4.645c-1.012.226-2.07.117-3.071.422a19.826,19.826,0,0,0-11.212,8.1,2.552,2.552,0,0,1-2.477,1.3,37.782,37.782,0,0,0-15.5,3.208,2.035,2.035,0,0,1-2.5-.346,11.961,11.961,0,0,0-17.585,15.992,1.6,1.6,0,0,1,.063,2.014,29.6,29.6,0,0,0-1.892,3.564,42.874,42.874,0,0,0-3.674,14.6c-.047.7-.367.941-1.018.933-.74-.01-1.481-.019-2.221.007a3.5,3.5,0,0,0-3.442,2.731,7.715,7.715,0,0,0-.19,2.1q0,15.144.012,30.287a1.653,1.653,0,0,1-1.1,1.865,3.009,3.009,0,0,0-1.961,3.111c.045,1.142.008,2.288.009,3.432,0,2.374,1.274,3.668,3.666,3.7,1.952.023,3.9.054,5.855-.014a2.393,2.393,0,0,1,2.287,1.258c3.482,5.114,8.169,6.047,13.542,4.843a10.225,10.225,0,0,0,6.558-5.043,1.9,1.9,0,0,1,1.867-1.053q8.025.045,16.052,0a1.95,1.95,0,0,1,1.87,1.041,10.706,10.706,0,0,0,8.42,5.389c2.556.2,5.1.185,7.437-1.222a12.2,12.2,0,0,0,4.416-4.19,1.828,1.828,0,0,1,1.806-1.014c1.041.04,2.086.045,3.128-.006a3.53,3.53,0,0,0,3.3-2.41,7.257,7.257,0,0,0,.378-2.28,21.4,21.4,0,0,0-.98-7.567,1.934,1.934,0,0,1,.585-2.17,41.306,41.306,0,0,0,4.8-5.172c.421-.575.751-.527,1.156.022,1.138,1.544,2.3,3.071,3.451,4.605.525.7,1.027,1.417,1.593,2.085a.75.75,0,0,0,1.279.031,9.034,9.034,0,0,0,.629-.788q3.819-5.087,7.636-10.174a11.49,11.49,0,0,0,2.775-6.348v-3.434A10.188,10.188,0,0,0,1185.053,1950.647Zm-10.4-4.208a.891.891,0,0,1-.818.993,11.5,11.5,0,0,0-9.136,10.459,10.841,10.841,0,0,0,2.448,8.083,1.525,1.525,0,0,1-.02,2.291,47.1,47.1,0,0,1-4.544,5.1c-.34-1.3-.667-2.493-.967-3.7q-1.456-5.849-2.9-11.7a5.12,5.12,0,0,0-5.377-4.2c-4.713-.006-9.425-.028-14.137.021-.932.01-1.291-.151-1.229-1.177.1-1.643.033-3.3.026-4.947-.011-2.635-1.251-3.873-3.9-3.874q-17.419-.008-34.838.023c-1,0-1.2-.247-1.151-1.219a38.554,38.554,0,0,1,5.04-16.29c1.353,1.8,2.681,3.562,4.008,5.328.706.94,1.417,1.877,2.108,2.83.259.356.439.422.735.023,3.166-4.264,6.47-8.432,9.479-12.8a10.686,10.686,0,0,0,1.083-10.294c-.244-.638-.085-.829.479-1.076a38.621,38.621,0,0,1,14.353-3.161,1.87,1.87,0,0,1,.357.072,20.736,20.736,0,0,0-1.085,7.635,19.539,19.539,0,0,0,4.188,11.533c5.186,6.658,10.42,13.28,15.635,19.915a1.812,1.812,0,0,0,.218.178l15.243-19.391a36.989,36.989,0,0,1,3.936,10.732A38.238,38.238,0,0,1,1174.652,1946.439Z" fill="#040505"/>
      <path id="Path_544" data-name="Path 544" d="M1121.351,1959.863c0-4,.033-7.832-.024-11.662-.014-.919.262-1.106,1.128-1.1,3.768.049,7.537.038,11.305.007.7-.006.915.2.913.908q-.03,15.8,0,31.594c0,.683-.222.84-.867.837q-8.125-.033-16.251,0a1.083,1.083,0,0,1-1.081-.66,11.617,11.617,0,0,0-20.354.028,1.065,1.065,0,0,1-1.106.631,19.808,19.808,0,0,0-2.724.007c-.891.082-1.028-.281-1.021-1.079.04-4.138.019-8.277.019-12.415,0-6.259.015-12.517-.018-18.775,0-.8.149-1.095,1.027-1.083q5.65.075,11.3,0c.868-.012,1.044.262,1.035,1.075-.042,3.834-.019,7.669-.019,11.566a5.618,5.618,0,0,0,1.579-.675c1.986-.982,3.979-1.951,5.943-2.978a1.581,1.581,0,0,1,1.668-.008C1116.242,1957.356,1118.715,1958.552,1121.351,1959.863Z" fill="#cc8e58"/>
      <path id="Path_545" data-name="Path 545" d="M1154.628,1941.041c-4.5-5.745-9.1-11.323-13.38-17.141a16.718,16.718,0,1,1,29.833-12.887,17.124,17.124,0,0,1-3.562,13.705q-6.12,7.758-12.2,15.543C1155.112,1940.52,1154.88,1940.756,1154.628,1941.041Z" fill="#1b772e"/>
      <path id="Path_546" data-name="Path 546" d="M1137.976,1977.256c0-6.636.005-13.057-.01-19.478,0-.5.18-.621.647-.62,5.046.014,10.092,0,15.138.016,1.021,0,1.442.687,1.682,1.572.46,1.7.47,1.693-1.258,1.693-1.951,0-3.9-.01-5.854,0a3.445,3.445,0,0,0-3.7,3.732c-.007.908-.012,1.816,0,2.724a3.413,3.413,0,0,0,3.612,3.6c3.094.01,6.19.021,9.284-.012.662-.008.9.191,1.056.85q.963,4.161,2.074,8.286c.2.754-.025.8-.673.845a4.381,4.381,0,0,1-4.51-2.052,11.363,11.363,0,0,0-16.879-1.642C1138.446,1976.9,1138.288,1977.011,1137.976,1977.256Z" fill="#ffbe00"/>
      <path id="Path_547" data-name="Path 547" d="M1109.648,1929.356c-2.373-3.184-4.7-6.18-6.885-9.276a8.18,8.18,0,0,1,.39-9.838,8.275,8.275,0,0,1,9.622-2.513,8.383,8.383,0,0,1,5.149,8.528,6.819,6.819,0,0,1-1.137,3.4C1114.471,1922.861,1112.1,1926.03,1109.648,1929.356Z" fill="#1b772e"/>
      <path id="Path_548" data-name="Path 548" d="M1184.663,1958.85a8.231,8.231,0,0,1-1.73,5.06c-2.025,2.725-4.085,5.423-6.1,8.157-.424.576-.608.477-.987-.037-2.034-2.76-4.125-5.478-6.158-8.24a8.244,8.244,0,0,1-.359-9.456,8.318,8.318,0,0,1,15.195,2.91A13.779,13.779,0,0,1,1184.663,1958.85Z" fill="#1b772e"/>
      <path id="Path_549" data-name="Path 549" d="M1106.3,1993.78a8.305,8.305,0,1,1,8.318-8.321A8.331,8.331,0,0,1,1106.3,1993.78Z" fill="#838e9a"/>
      <path id="Path_550" data-name="Path 550" d="M1146.339,1993.78a8.305,8.305,0,1,1,8.331-8.33A8.336,8.336,0,0,1,1146.339,1993.78Z" fill="#838e9a"/>
      <path id="Path_551" data-name="Path 551" d="M1108.021,1954.382c0-2.348.006-4.528-.005-6.707,0-.463.238-.558.634-.557,2.893.006,5.785.011,8.678,0,.5,0,.63.2.627.664-.015,2.15-.007,4.3-.007,6.622-1.415-.706-2.753-1.306-4.02-2.03a1.782,1.782,0,0,0-1.944.018C1110.725,1953.068,1109.428,1953.679,1108.021,1954.382Z" fill="#ffbe00"/>
      <path id="Path_552" data-name="Path 552" d="M1126.417,1987.131c-2.59,0-5.181-.013-7.771.011-.544.005-.839-.1-.712-.71a2.08,2.08,0,0,0,.012-.4c.008-.7-.263-1.679.09-2.028.488-.482,1.461-.158,2.225-.16,4.474-.014,8.948.026,13.421-.034.944-.013,1.181.277,1.01,1.114a2.249,2.249,0,0,0-.017.4c-.025,1.807-.025,1.807-1.8,1.807Z" fill="#1b772e"/>
      <path id="Path_553" data-name="Path 553" d="M1157.5,1967.1c-3.039,0-6.023,0-9.007.005-.34,0-.5-.11-.469-.462a2.518,2.518,0,0,0,0-.3c-.053-2.51-.053-2.51,2.441-2.51,1.847,0,3.695.025,5.541-.016a.739.739,0,0,1,.883.674C1157.068,1965.339,1157.279,1966.176,1157.5,1967.1Z" fill="#5ac6e9"/>
      <path id="Path_554" data-name="Path 554" d="M1091.312,1987.131c-.875,0-1.751-.02-2.625.008-.487.016-.7-.083-.722-.649-.112-2.657-.133-2.656,2.53-2.656,1.178,0,2.357.031,3.534-.013.6-.023.735.181.672.747a7.246,7.246,0,0,0,0,1.809c.1.682-.176.793-.765.765C1093.064,1987.1,1092.187,1987.131,1091.312,1987.131Z" fill="#1b772e"/>
      <path id="Path_555" data-name="Path 555" d="M1157.983,1985.39c-.019-1.557-.019-1.557,1.506-1.557,1.861,0,1.861,0,1.861,1.879,0,1.42,0,1.42-1.433,1.42h-.2C1158,1987.132,1158,1987.132,1157.983,1985.39Z" fill="#1b772e"/>
      <path id="Path_556" data-name="Path 556" d="M1141.34,1913.691a13.343,13.343,0,1,1,13.221,13.409A13.3,13.3,0,0,1,1141.34,1913.691Z" fill="#050605"/>
      <path id="Path_557" data-name="Path 557" d="M1109.6,1920.431a4.993,4.993,0,0,1,.02-9.986,4.994,4.994,0,1,1-.02,9.986Z" fill="#050605"/>
      <path id="Path_558" data-name="Path 558" d="M1181.355,1958.841a5.049,5.049,0,0,1-5.019,4.991,5.031,5.031,0,1,1,.073-10.062A5.06,5.06,0,0,1,1181.355,1958.841Z" fill="#050605"/>
      <path id="Path_559" data-name="Path 559" d="M1111.29,1985.5a5,5,0,0,1-9.992.03,5,5,0,1,1,9.992-.03Z" fill="#050605"/>
      <path id="Path_560" data-name="Path 560" d="M1141.34,1985.471a4.99,4.99,0,1,1,4.944,5.027A5.014,5.014,0,0,1,1141.34,1985.471Z" fill="#050605"/>
      <path id="Path_561" data-name="Path 561" d="M1154.686,1903.808a9.987,9.987,0,0,1-.044,19.973,9.987,9.987,0,1,1,.044-19.973Z" fill="#ffbe00"/>
      <path id="Path_562" data-name="Path 562" d="M1109.632,1913.774a1.691,1.691,0,0,1,1.65,1.685,1.669,1.669,0,0,1-1.692,1.634,1.661,1.661,0,0,1,.042-3.319Z" fill="#ffbe00"/>
      <path id="Path_563" data-name="Path 563" d="M1177.97,1958.826a1.572,1.572,0,0,1-1.677,1.6,1.63,1.63,0,0,1,.044-3.259A1.584,1.584,0,0,1,1177.97,1958.826Z" fill="#ffbe00"/>
      <path id="Path_564" data-name="Path 564" d="M1106.162,1987.106a1.633,1.633,0,0,1-1.53-1.677,1.714,1.714,0,0,1,1.747-1.592,1.671,1.671,0,0,1,1.56,1.76A1.6,1.6,0,0,1,1106.162,1987.106Z" fill="#c0c6cf"/>
      <path id="Path_565" data-name="Path 565" d="M1146.3,1983.836a1.725,1.725,0,0,1,1.7,1.651,1.671,1.671,0,0,1-3.338.056A1.721,1.721,0,0,1,1146.3,1983.836Z" fill="#c0c6cf"/>
    </g>
  </g>
</svg>
