<svg xmlns="http://www.w3.org/2000/svg" width="176.809" height="37.259" viewBox="0 0 176.809 37.259">
  <g id="Group_567" data-name="Group 567" transform="translate(-119.554 -56.727)">
    <path id="Path_577" data-name="Path 577" d="M127.819,93.914l6.892-35.46a.031.031,0,0,1,.03-.024l9.327.011a.029.029,0,0,1,.029.035l-3.275,16.917a.029.029,0,0,0,.051.024l14.019-16.953a.027.027,0,0,1,.022-.011l11.481.012a.03.03,0,0,1,.022.049L150.846,76.728a.03.03,0,0,0,0,.035l10.445,17.178a.03.03,0,0,1-.025.045l-10.785-.012a.028.028,0,0,1-.025-.015l-9.791-17.475a.03.03,0,0,0-.055.009l-3.4,17.443a.028.028,0,0,1-.028.023l-9.328-.01a.029.029,0,0,1-.029-.035" fill="#002043"/>
    <path id="Path_578" data-name="Path 578" d="M133.235,65.949l-.792,4.19s8.339-2.591,9.309.451l.9-4.63Z"/>
    <path id="Path_579" data-name="Path 579" d="M119.706,56.727l21.7.024a2.611,2.611,0,0,1,2.619,3.58l-2.243,10.093s.407-3.02-3.488-3.024l-11.208-.012s-8.785-.05-7.382-10.661" fill="#1b772e"/>
    <path id="Path_580" data-name="Path 580" d="M281.231,93.979a15.783,15.783,0,0,1-9.172-2.448,7.954,7.954,0,0,1-3.536-6.948,13.259,13.259,0,0,1,.1-1.335h8.8a3.673,3.673,0,0,0,.89,2.967,4.186,4.186,0,0,0,3.165,1.088,4.933,4.933,0,0,0,3.041-.841,2.8,2.8,0,0,0,1.112-2.373,3.015,3.015,0,0,0-1.409-2.572,24.391,24.391,0,0,0-4.376-2.225,38.048,38.048,0,0,1-4.673-2.25,10.438,10.438,0,0,1-3.14-2.892,7.6,7.6,0,0,1-1.335-4.6,9.96,9.96,0,0,1,1.681-5.934,10.97,10.97,0,0,1,4.8-3.857,17.432,17.432,0,0,1,7.021-1.335,16.886,16.886,0,0,1,6.33,1.112,9.587,9.587,0,0,1,4.3,3.215,8.2,8.2,0,0,1,1.533,4.969,8.489,8.489,0,0,1-.05,1.088h-9a2.641,2.641,0,0,0,.049-.593,2.882,2.882,0,0,0-.964-2.25,3.818,3.818,0,0,0-2.646-.866,4.578,4.578,0,0,0-2.893.866,2.819,2.819,0,0,0-1.112,2.348,3.008,3.008,0,0,0,1.384,2.5,26.02,26.02,0,0,0,4.3,2.349,45.8,45.8,0,0,1,4.772,2.472,10.746,10.746,0,0,1,3.189,3.041,7.935,7.935,0,0,1,1.335,4.673,9.6,9.6,0,0,1-1.632,5.489,10.741,10.741,0,0,1-4.7,3.783,17.566,17.566,0,0,1-7.171,1.36m-18.785-.346H253.99L243.655,72.221l-3.808,21.412h-8.455l6.131-34.714h8.456L256.314,80.43l3.807-21.511h8.456Zm-50.978-7.467a9.958,9.958,0,0,0,5.737-1.682,11.186,11.186,0,0,0,3.832-4.524A14.1,14.1,0,0,0,222.4,73.8a7.661,7.661,0,0,0-1.978-5.587,7.382,7.382,0,0,0-5.539-2.028,10.07,10.07,0,0,0-5.76,1.682,11.174,11.174,0,0,0-3.857,4.475A13.871,13.871,0,0,0,203.9,78.5a7.747,7.747,0,0,0,1.978,5.613A7.4,7.4,0,0,0,211.468,86.166Zm-1.285,7.813a15.841,15.841,0,0,1-7.739-1.83,12.823,12.823,0,0,1-5.167-5.143,15.487,15.487,0,0,1-1.83-7.615,22.174,22.174,0,0,1,2.621-10.854,18.854,18.854,0,0,1,7.293-7.442,21,21,0,0,1,10.607-2.67,16.262,16.262,0,0,1,7.813,1.805,12.671,12.671,0,0,1,5.193,5.093,15.256,15.256,0,0,1,1.829,7.541,22.445,22.445,0,0,1-2.621,10.9,18.885,18.885,0,0,1-7.318,7.517A21.083,21.083,0,0,1,210.183,93.979Zm-32.335,0a15.786,15.786,0,0,1-9.173-2.448,7.953,7.953,0,0,1-3.535-6.948,13.19,13.19,0,0,1,.1-1.335h8.8a3.673,3.673,0,0,0,.89,2.967A4.189,4.189,0,0,0,178.1,87.3a4.929,4.929,0,0,0,3.041-.841,2.8,2.8,0,0,0,1.113-2.373,3.017,3.017,0,0,0-1.409-2.572,24.408,24.408,0,0,0-4.377-2.225,38.12,38.12,0,0,1-4.673-2.25,10.438,10.438,0,0,1-3.14-2.892,7.6,7.6,0,0,1-1.335-4.6A9.96,9.96,0,0,1,169,63.617a10.962,10.962,0,0,1,4.8-3.857,17.44,17.44,0,0,1,7.022-1.335,16.89,16.89,0,0,1,6.33,1.112,9.587,9.587,0,0,1,4.3,3.215,8.209,8.209,0,0,1,1.533,4.969,8.492,8.492,0,0,1-.05,1.088h-9a2.628,2.628,0,0,0,.05-.593,2.885,2.885,0,0,0-.964-2.25,3.818,3.818,0,0,0-2.646-.866,4.578,4.578,0,0,0-2.893.866,2.817,2.817,0,0,0-1.113,2.348,3.009,3.009,0,0,0,1.385,2.5,25.961,25.961,0,0,0,4.3,2.349,45.7,45.7,0,0,1,4.772,2.472,10.749,10.749,0,0,1,3.19,3.041,7.936,7.936,0,0,1,1.335,4.673,9.6,9.6,0,0,1-1.632,5.489,10.738,10.738,0,0,1-4.7,3.783A17.564,17.564,0,0,1,177.848,93.979Z" fill="#002043"/>
  </g>
</svg>
