<svg xmlns="http://www.w3.org/2000/svg" width="20.25" height="20.25" viewBox="0 0 20.25 20.25">
  <g id="mail" transform="translate(-1573.059 -17.542)">
    <g id="Group_570" data-name="Group 570">
      <path id="Path_582" data-name="Path 582" d="M1576.027,25.175a.125.125,0,0,0-.054.013v6.663a1.163,1.163,0,0,0,.184.522,1.379,1.379,0,0,0,1.2.616h5.957q2.833,0,5.669,0h0a1.385,1.385,0,0,0,1.408-1.4c-.028-2.052-.008-4.1-.011-6.157,0-.084.049-.2-.033-.247a.086.086,0,0,0-.043-.011c-.066,0-.129.073-.188.113q-2.88,1.916-5.756,3.835a2.131,2.131,0,0,1-2.385,0q-1.525-1.019-3.053-2.035-1.368-.913-2.738-1.824c-.049-.032-.094-.086-.157-.086Z" fill="#18352d"/>
      <path id="Path_583" data-name="Path 583" d="M1577.343,22.342a1.33,1.33,0,0,0-1.34,1.036c-.005.022,0,.048-.03.057v.478c.007,0,.02.009.021.015a1.4,1.4,0,0,0,.661.882q2.839,1.883,5.672,3.778a1.342,1.342,0,0,0,1.688,0l4.431-2.955c.451-.3.9-.6,1.352-.9a1.209,1.209,0,0,0,.551-1.274,1.311,1.311,0,0,0-1.355-1.115Z" fill="#18352d"/>
    </g>
    <circle id="Ellipse_39" data-name="Ellipse 39" cx="10" cy="10" r="10" transform="translate(1573.184 17.667)" fill="none" stroke="#18352d" stroke-width="0.25"/>
  </g>
</svg>
