<svg xmlns="http://www.w3.org/2000/svg" width="160.366" height="160.366" viewBox="0 0 160.366 160.366">
  <g id="Origination" transform="translate(-705.766 -1868.453)">
    <circle id="Ellipse_35" data-name="Ellipse 35" cx="69.39" cy="69.39" r="69.39" transform="translate(706.34 2006.016) rotate(-80.783)" fill="none" stroke="#ffbe00" stroke-width="1"/>
    <g id="Group_527" data-name="Group 527">
      <path id="Path_541" data-name="Path 541" d="M773.419,1926.191a118.539,118.539,0,0,1,10.32,7.847c.249.218.493.44.812.726a46.908,46.908,0,0,0-6.994,3.511,39.184,39.184,0,0,0-7.128,5.534c-.674.677-1.041.542-1.66.014a43.963,43.963,0,0,1-12.373-17.151c-1.91-4.7-3.167-9.617-4.779-14.415a37.891,37.891,0,0,0-2.569-6.368v-.916c.677-.856,1.17-1.024,1.885-.474,4.343,3.346,9.4,5.122,14.551,6.711a148.166,148.166,0,0,1,15.293,5.283,31,31,0,0,1,15.623,14.2c.342.644.447.9-.47,1.065a64.686,64.686,0,0,0-8.4,2.017,1.4,1.4,0,0,1-1.419-.225,104.591,104.591,0,0,0-11.385-7.063c-.343-.187-.715-.321-1.074-.48C773.524,1926.01,773.267,1925.846,773.419,1926.191Z" fill="#ffbe00" stroke="#040505" stroke-width="1.1"/>
      <path id="Path_542" data-name="Path 542" d="M806.174,1948.551a56.923,56.923,0,0,0-8.311,2.033c-5.819,1.828-11.667,3.594-17.165,6.3a82.3,82.3,0,0,0-15.043,9.978c-1.261,1.012-2.525,2.02-3.778,3.041a1.562,1.562,0,0,1-1.915.309,1.505,1.505,0,0,1-.6-1.925c3.755-12.928,11.054-23.061,23.239-29.3a49.492,49.492,0,0,1,13.362-4.13,157.115,157.115,0,0,1,16.954-2.063c5.131-.422,10.277-.733,15.365-1.6a49.019,49.019,0,0,0,11.875-3.416c.3-.135.628-.22.941-.334a1.2,1.2,0,0,1,1.377.451,1.269,1.269,0,0,1,.224,1.52,6.5,6.5,0,0,1-.594.917c-3.753,5.013-6.664,10.538-9.712,15.979-2.876,5.135-5.855,10.206-9.837,14.588-7.034,7.741-15.328,13.574-25.429,16.648a48.061,48.061,0,0,1-11.865,1.924c-4.3.2-8.6.232-12.891.607a44.978,44.978,0,0,0-6.994,1.277c-.442.11-.632.442-.853.766a40.7,40.7,0,0,0-5.952,13.323,2.111,2.111,0,0,1-1.656,1.838,1.859,1.859,0,0,1-2-.789,2.283,2.283,0,0,1-.253-2,51.112,51.112,0,0,1,9.989-19.486,69.576,69.576,0,0,1,22.336-17.854,170,170,0,0,1,19.564-8.432.609.609,0,0,1,.323-.243C806.646,1948.555,806.4,1948.405,806.174,1948.551Z" fill="#3b6529" stroke="#040505" stroke-width="1.1"/>
    </g>
  </g>
</svg>
