<svg xmlns="http://www.w3.org/2000/svg" width="139.781" height="139.781" viewBox="0 0 139.781 139.781">
  <g id="supply_chain" data-name="supply chain" transform="translate(-1400.763 -1878.746)">
    <circle id="Ellipse_37" data-name="Ellipse 37" cx="69.39" cy="69.39" r="69.39" transform="translate(1401.263 1879.246)" fill="none" stroke="#ffbe00" stroke-width="1"/>
    <g id="Group_537" data-name="Group 537">
      <path id="Path_566" data-name="Path 566" d="M1461.485,1983.15c-2.7,0-5.283,0-7.867,0a29.871,29.871,0,0,1-16.576-5.019,6.839,6.839,0,0,0-.777-.521c-.881-.411-1.354-.1-1.364.85-.024,2.382-.447,2.809-2.786,2.809q-7.759,0-15.519,0c-1.794,0-2.392-.594-2.393-2.377q0-10.817,0-21.634c0-1.713.614-2.329,2.32-2.33q7.995-.006,15.99,0c1.791,0,2.453.6,2.36,2.383-.057,1.09.17,1.537,1.358,1.406a14.277,14.277,0,0,1,3.286.016c.987.121,1.047-.287,1.044-1.085-.027-6.975-.017-13.952-.015-20.928,0-1.94.556-2.491,2.514-2.491H1498.2c2.025,0,2.557.534,2.558,2.565q0,12.52,0,25.048c1.882-.409,1.882-.409,1.882-2.2,0-2.412.427-2.832,2.879-2.832h19.047c1.969,0,2.535.551,2.535,2.471q0,10.7,0,21.4c0,1.921-.567,2.474-2.532,2.474q-9.7,0-19.4,0c-.275,0-.613.1-.813-.022-1.218-.751-1.748.227-2.424.895a22.042,22.042,0,0,1-15.9,6.647c-6.192.03-12.389-.137-18.574.064A5.879,5.879,0,0,1,1461.485,1983.15Z" fill="#040505"/>
      <path id="Path_567" data-name="Path 567" d="M1468.772,1899.256c-.769.784-1.376,1.363-1.935,1.986-.377.421-.64.408-1.012-.013-.667-.757-1.852-1.422-1.932-2.215-.065-.631,1.184-1.407,1.868-2.1q1.647-1.674,3.321-3.321a1.929,1.929,0,0,1,3.149,0c1.647,1.619,3.254,3.278,4.912,4.885.441.428.456.69,0,1.1-.73.648-1.34,1.778-2.131,1.909-.739.121-1.327-1.144-2.022-1.755-.1-.089-.2-.176-.454-.392v7.67c0,3.132-.024,6.264.019,9.4.01.722-.168.907-.9.907-2.883,0-2.883.027-2.883-2.9v-15.158Z" fill="#ffbe00"/>
      <path id="Path_568" data-name="Path 568" d="M1439.546,1909.851c3.125,3.116,6.118,6.144,9.17,9.111.634.616.692.965,0,1.523s-1.309,1.7-1.955,1.7-1.318-1.08-1.953-1.712c-2.62-2.611-5.23-5.231-7.865-7.869-.086.156-.14.213-.148.276-.114.834.392,2.117-.234,2.411-.867.408-2.066.1-3.123.119-.52.009-.413-.356-.413-.648,0-2.31-.024-4.62.009-6.929a1.749,1.749,0,0,1,1.864-1.825c2.27-.029,4.541.007,6.811-.021.543-.006.821.118.723.7a.656.656,0,0,0,0,.117c-.014.936.3,2.09-.136,2.745C1441.866,1910.192,1440.624,1909.623,1439.546,1909.851Z" fill="#ffbe00"/>
      <path id="Path_569" data-name="Path 569" d="M1501.787,1909.814c-1.1-.052-2.259.228-2.726-.216-.556-.529-.09-1.7-.193-2.581-.093-.8.146-1.067,1-1.04,2.112.068,4.227.011,6.341.027a1.843,1.843,0,0,1,2.078,2.093c.014,2.153-.017,4.306.017,6.459.01.624-.1.98-.81.853a.644.644,0,0,0-.117,0c-.9-.011-2.033.307-2.628-.123-.637-.46-.1-1.672-.257-2.569-.417-.027-.555.354-.775.573-2.833,2.813-5.667,5.626-8.463,8.476-.523.532-.84.628-1.351.014-.6-.719-1.79-1.353-1.8-2.033s1.127-1.373,1.787-2.035C1496.473,1915.116,1499.067,1912.532,1501.787,1909.814Z" fill="#ffbe00"/>
      <path id="Path_570" data-name="Path 570" d="M1474.417,1973.278a6.709,6.709,0,0,0-4.661-1.43c-1.409.056-2.822-.008-4.232.021-.6.012-.818-.088-.683-.781a5.587,5.587,0,0,0-5.579-6.752c-1.92-.017-3.841-.029-5.76.012a2.169,2.169,0,0,1-1.589-.572,19.44,19.44,0,0,0-6.742-3.889,1.081,1.081,0,0,1-.879-1.227q.045-9.816,0-19.633c0-.788.142-1.113,1.008-1.058a33.949,33.949,0,0,0,3.76,0c.733-.036.921.191.912.914-.039,3.292-.006,6.584-.024,9.876a2.076,2.076,0,0,0,1.158,2.222c1.007.45,1.705-.05,2.4-.689s1.277-1.9,2.13-1.835c.721.054,1.367,1.165,2.04,1.814,1.231,1.186,2.124,1.2,3.336.028a15.42,15.42,0,0,0,1.4-1.422c.545-.685.95-.566,1.458.037a18.221,18.221,0,0,0,1.572,1.585,1.841,1.841,0,0,0,2.135.5,1.925,1.925,0,0,0,1.191-1.965c-.006-3.331.035-6.663-.027-9.993-.017-.914.262-1.132,1.116-1.073a21.865,21.865,0,0,0,3.288,0c1.006-.083,1.3.184,1.3,1.254-.049,10.071-.029,20.143-.029,30.214Z" fill="#cc8e58"/>
      <path id="Path_571" data-name="Path 571" d="M1478.18,1954.806c0-5.213.03-10.428-.026-15.641-.01-1.006.282-1.208,1.237-1.2q8.289.072,16.581.005c.812-.005,1.049.188,1.046,1.027q-.051,11.877-.008,23.756a1.171,1.171,0,0,1-.738,1.277,40.7,40.7,0,0,0-10.631,7.2,2.31,2.31,0,0,1-1.783.646c-1.528-.04-3.06-.063-4.585.007-.856.04-1.124-.169-1.116-1.079C1478.2,1965.469,1478.181,1960.138,1478.18,1954.806Z" fill="#cc8e58"/>
      <path id="Path_572" data-name="Path 572" d="M1502.643,1965.463c0,3.672,0,7.275.005,10.877a1.76,1.76,0,0,1-.274.989c-3.837,6.128-9.3,9.482-16.589,9.569-6.15.074-12.3.011-18.452.02a2.1,2.1,0,0,1-2.082-1.022,1.713,1.713,0,0,1,.09-1.885,2.182,2.182,0,0,1,2.055-.867c6.308.011,12.615-.015,18.923.028.969.007,1.345-.137,1.3-1.238-.1-2.545-.028-2.547-2.555-2.547-2.155,0-4.309.008-6.464,0-1.442-.008-2.335-.776-2.294-1.937.039-1.128.885-1.814,2.289-1.821,2.194-.011,4.389-.037,6.582.013a2.928,2.928,0,0,0,2.289-.941,41.789,41.789,0,0,1,14.82-9.207A1.742,1.742,0,0,1,1502.643,1965.463Z" fill="#f6bc8a"/>
      <path id="Path_573" data-name="Path 573" d="M1460.711,1979.386c-2.852-.132-6.338.188-9.818-.193a25.7,25.7,0,0,1-12.147-4.532,3.86,3.86,0,0,0-2.919-.915c-.814.131-.95-.25-.941-.976.036-3.133.012-6.267.019-9.4,0-.43-.181-.9.621-.938,4.951-.225,9.695.493,13.492,3.9a6.8,6.8,0,0,0,5.405,1.783c1.562-.093,3.133-.037,4.7-.013a1.889,1.889,0,1,1-.006,3.751c-2.742.021-5.485.038-8.225-.013-.794-.015-.957.238-.954.982.009,2.8-.018,2.8,2.756,2.8q8.814,0,17.626,0a2.027,2.027,0,0,1,1.969,1.013,1.709,1.709,0,0,1-.084,1.885,2.084,2.084,0,0,1-1.934.873C1467.293,1979.379,1464.316,1979.386,1460.711,1979.386Z" fill="#f6bc8a"/>
      <path id="Path_574" data-name="Path 574" d="M1523.342,1969.974c0,2.818-.027,5.636.017,8.454.012.76-.189.982-.966.977q-7.515-.054-15.03,0c-.761.005-.979-.194-.975-.968q.051-8.454,0-16.908c0-.759.189-.982.966-.977q7.515.054,15.03,0c.761-.005.988.193.975.968C1523.313,1964.337,1523.342,1967.156,1523.342,1969.974Z" fill="#ffbe00"/>
      <path id="Path_575" data-name="Path 575" d="M1431.138,1968.1c0,2.818-.027,5.636.017,8.453.012.764-.2.982-.968.974q-5.635-.06-11.27,0c-.772.008-.973-.21-.969-.974q.048-8.453,0-16.9c0-.763.2-.983.968-.974q5.635.06,11.27,0c.772-.009.982.209.969.974C1431.111,1962.46,1431.138,1965.278,1431.138,1968.1Z" fill="#3b6529"/>
      <path id="Path_576" data-name="Path 576" d="M1465.008,1944.576c-1.719-1.314-2.365-1.266-3.776.145-1.866,1.864-1.866,1.864-3.676.06-1.481-1.477-2.068-1.53-3.836-.239,0-2.068.013-4.04-.009-6.013-.006-.529.28-.544.669-.543,3.331.006,6.663.014,9.994-.007.544,0,.647.217.642.695C1465,1940.588,1465.008,1942.5,1465.008,1944.576Z" fill="#f8ab00"/>
    </g>
  </g>
</svg>
