<svg xmlns="http://www.w3.org/2000/svg" width="139.781" height="139.781" viewBox="0 0 139.781 139.781">
  <g id="Trading" transform="translate(-367.413 -1878.746)">
    <circle id="Ellipse_34" data-name="Ellipse 34" cx="69.39" cy="69.39" r="69.39" transform="translate(367.913 1879.246)" fill="none" stroke="#ffbe00" stroke-width="1"/>
    <g id="Group_522" data-name="Group 522">
      <path id="Path_528" data-name="Path 528" d="M384.484,1941.4q9.945-12.336,19.892-24.669a2.088,2.088,0,0,1,3.1-.418c2.582,1.623,5.2,3.2,7.712,4.923a22.026,22.026,0,0,0,7.7,3.453c2.465.552,4.891,1.283,7.326,1.963a2.252,2.252,0,0,0,1.3-.021c3.284-.955,6.58-1.866,9.858-2.837a8.643,8.643,0,0,1,2.525-.37c4.3.013,8.592-.006,12.889.018a3.15,3.15,0,0,0,1.821-.524c3.371-2.172,6.761-4.316,10.147-6.466,1.568-.995,2.456-.83,3.594.648q8.482,11.017,16.967,22.035c1.174,1.525,1.1,2.432-.368,3.7q-4.516,3.917-9.061,7.8a3.557,3.557,0,0,0-.935,1.2q-2.99,6.3-6,12.6a1.278,1.278,0,0,0-.062,1.3,7.244,7.244,0,0,1-5.946,10.711c-.525.05-.562.256-.618.687-.453,3.51-2.508,6.025-5.811,6.576-1.407.235-1.62.811-1.827,1.98a7.107,7.107,0,0,1-6.423,5.608c-.521.035-.739.117-.806.724a7.33,7.33,0,0,1-12.3,4.787c-.513-.466-.778-.291-1.154.123a7.428,7.428,0,0,1-6.1,2.651,7.24,7.24,0,0,1-6.764-5.736c-.117-.584-.259-.767-.9-.743a7.246,7.246,0,0,1-7.619-6.438c-.113-.788-.389-1.049-1.174-1.14a7.182,7.182,0,0,1-6.281-7.521c.03-.6-.073-.815-.688-.944a7.247,7.247,0,0,1-4.415-11.42,1.085,1.085,0,0,0-.053-1.567c-2.717-3.625-5.382-7.288-8.118-10.9-1.275-1.683-3.078-2.828-4.635-4.223-1.74-1.558-3.53-3.061-5.311-4.573a8.882,8.882,0,0,1-1.464-1.538Z" fill="#040505"/>
      <path id="Path_529" data-name="Path 529" d="M425.934,1919.548a1.98,1.98,0,0,1-1.419-.706q-6.957-6.956-13.907-13.917a2.092,2.092,0,1,1,2.944-2.958q6.978,6.933,13.916,13.908a2.1,2.1,0,0,1-1.534,3.673Z" fill="#050605"/>
      <path id="Path_530" data-name="Path 530" d="M448.506,1919.542a2.066,2.066,0,0,1-1.866-3.077,3.953,3.953,0,0,1,.655-.787q6.732-6.744,13.472-13.479a2.315,2.315,0,0,1,2.261-.908,2.072,2.072,0,0,1,1.158,3.388c-.39.476-.859.888-1.3,1.325q-6.3,6.3-12.6,12.6A2.286,2.286,0,0,1,448.506,1919.542Z" fill="#050605"/>
      <path id="Path_531" data-name="Path 531" d="M435.214,1911.593c0-1.887-.011-3.774,0-5.661a2.074,2.074,0,1,1,4.131.01q.015,5.712,0,11.425a2.067,2.067,0,1,1-4.128-.011C435.2,1915.435,435.214,1913.514,435.214,1911.593Z" fill="#050605"/>
      <path id="Path_532" data-name="Path 532" d="M439.345,1897.467a2.063,2.063,0,1,1-2.071-2.054A2.01,2.01,0,0,1,439.345,1897.467Z" fill="#070807"/>
      <path id="Path_533" data-name="Path 533" d="M424.711,1929.494a2.529,2.529,0,0,1-.512,1.144c-2.426,4.3-4.9,8.565-7.286,12.88a7.322,7.322,0,1,0,12.736,7.226q2.4-4.13,4.705-8.32a1.167,1.167,0,0,1,1.363-.7c2.427.229,4.862.365,7.3.5a2.272,2.272,0,0,1,1.635.675q11.859,11.907,23.76,23.773a3.309,3.309,0,0,1,1.013,3.455,2.963,2.963,0,0,1-2.3,2.129,3.287,3.287,0,0,1-3.239-1.117q-3.075-3.121-6.153-6.239-3.444-3.483-6.9-6.954a2.11,2.11,0,0,0-2.626-.43,2.014,2.014,0,0,0-.991,2.2,2.928,2.928,0,0,0,1.01,1.514q6.389,6.442,12.769,12.892a3.235,3.235,0,0,1,.409,4.526,3.114,3.114,0,0,1-4.651.178c-1.106-1.03-2.134-2.142-3.2-3.218-1.836-1.858-3.666-3.721-5.51-5.571-1.1-1.1-2.361-1.189-3.259-.259-.857.888-.761,2.129.289,3.192q4.2,4.257,8.426,8.488a3.5,3.5,0,0,1,1.206,2.73,2.982,2.982,0,0,1-1.87,2.736,3.027,3.027,0,0,1-3.513-.661c-1.358-1.315-2.662-2.684-3.99-4.029-.289-.294-.568-.6-.874-.875a2.115,2.115,0,0,0-2.969-.076,2.06,2.06,0,0,0,.045,3.031c1.6,1.658,3.256,3.258,4.847,4.922a3.166,3.166,0,0,1-2.429,5.381,3.778,3.778,0,0,1-2.347-1.151c-.3-.271-.213-.505-.106-.82,1.609-4.749-.306-8.5-5.117-10-.43-.134-.47-.3-.419-.73a7.2,7.2,0,0,0-6.709-8.316c-.491-.045-.6-.188-.643-.66a7.048,7.048,0,0,0-7.652-6.767c-.986.05-1.294-.234-1.585-1.129a7.186,7.186,0,0,0-10.984-3.668c-.684.481-.953.384-1.4-.237q-3.387-4.665-6.867-9.264a.907.907,0,0,1,.043-1.374q9.106-11.052,18.162-22.146a.882.882,0,0,1,1.057-.341Q422.042,1928.759,424.711,1929.494Z" fill="#febc8b"/>
      <path id="Path_534" data-name="Path 534" d="M469.574,1961.809a2.3,2.3,0,0,1-.906-.743q-10.9-10.893-21.79-21.805a3.459,3.459,0,0,0-2.341-1.109c-3.495-.221-6.991-.444-10.484-.7a2.333,2.333,0,0,0-2.423,1.348q-2.751,4.938-5.57,9.838a3.06,3.06,0,0,1-3.271,1.644,3.149,3.149,0,0,1-2.3-4.609q3.759-6.669,7.527-13.334a1.309,1.309,0,0,1,.885-.62q6.8-1.957,13.6-3.925a5.66,5.66,0,0,1,1.618-.218c4.159.012,8.317.018,12.475-.007a1.521,1.521,0,0,1,1.365.665q8.22,10.5,16.5,20.958a1.592,1.592,0,0,1,.209,1.992C472.925,1954.7,471.265,1958.26,469.574,1961.809Z" fill="#febc8b"/>
      <path id="Path_535" data-name="Path 535" d="M396.7,1948.114c-.25-.209-.408-.338-.562-.47-2.113-1.8-4.212-3.621-6.346-5.4-.472-.394-.183-.625.042-.9q2.645-3.282,5.3-6.556c3.619-4.475,7.248-8.943,10.842-13.439.431-.539.691-.651,1.308-.242,2.28,1.51,4.6,2.962,6.924,4.4.567.35.672.577.205,1.143q-8.442,10.229-16.838,20.494C397.3,1947.474,397,1947.781,396.7,1948.114Z" fill="#ffbe00"/>
      <path id="Path_536" data-name="Path 536" d="M485.1,1940.509c.008.253-.178.319-.3.425-2.137,1.833-4.287,3.65-6.4,5.5-.421.368-.622.339-.958-.091q-7.7-9.847-15.436-19.658c-.462-.584-.361-.8.185-1.145,2.352-1.468,4.7-2.94,7.02-4.459.535-.35.755-.273,1.129.215q7.155,9.353,14.356,18.67C484.833,1940.157,484.975,1940.346,485.1,1940.509Z" fill="#1b772e" stroke="#1b772e" stroke-width="1"/>
      <path id="Path_537" data-name="Path 537" d="M416.514,1981.447a2.961,2.961,0,0,1-2.879-1.781,2.925,2.925,0,0,1,.495-3.44q2.488-2.607,5.1-5.1a3.124,3.124,0,0,1,4.559,4.257c-1.717,1.868-3.559,3.623-5.377,5.4A2.5,2.5,0,0,1,416.514,1981.447Z" fill="#febc8b"/>
      <path id="Path_538" data-name="Path 538" d="M420.731,1985.375a2.912,2.912,0,0,1,.966-1.9c1.578-1.576,3.143-3.167,4.738-4.726a3.145,3.145,0,1,1,4.514,4.377c-1.612,1.686-3.272,3.329-4.953,4.947a2.927,2.927,0,0,1-3.43.551C421.364,1988.092,420.749,1987.114,420.731,1985.375Z" fill="#febc8b"/>
      <path id="Path_539" data-name="Path 539" d="M437.913,1989.711v.1c-.029,1.925-3.58,5.57-5.5,5.623a2.976,2.976,0,0,1-2.88-1.631,2.914,2.914,0,0,1,.18-3.3,18.242,18.242,0,0,1,3.348-3.332,2.832,2.832,0,0,1,3.2-.208A2.938,2.938,0,0,1,437.913,1989.711Z" fill="#febc8b"/>
      <path id="Path_540" data-name="Path 540" d="M412.23,1964.259a3.055,3.055,0,0,1,3.076,1.712,3.008,3.008,0,0,1-.429,3.463,30.413,30.413,0,0,1-2.908,2.914,3.135,3.135,0,0,1-4.376-4.463c.9-.994,1.866-1.921,2.831-2.848A2.565,2.565,0,0,1,412.23,1964.259Z" fill="#febc8b"/>
    </g>
  </g>
</svg>
