<?xml version="1.0" encoding="UTF-8"?>
<svg id="Layer_1" data-name="Layer 1" xmlns="http://www.w3.org/2000/svg" viewBox="0 0 104.94 100.34">
  <defs>
    <style>
      .cls-1 {
        fill: #565555;
      }
    </style>
  </defs>
  <path class="cls-1" d="M10.34,76.64c7.65,4.91,16.74,7.77,26.5,7.77,32.09,0,50.23-27.11,49.13-51.42,3.38-2.43,6.31-5.48,8.63-8.95-3.1,1.38-6.43,2.31-9.93,2.72,3.57-2.13,6.31-5.52,7.6-9.56-3.34,1.98-7.04,3.42-10.97,4.2-3.15-3.36-7.65-5.46-12.62-5.46-11.16,0-19.36,10.41-16.84,21.22-14.37-.72-27.1-7.6-35.63-18.06-4.53,7.77-2.35,17.94,5.35,23.08-2.83-.09-5.5-.87-7.83-2.16-.19,8.01,5.55,15.5,13.86,17.17-2.43,.66-5.1,.81-7.8,.29,2.19,6.87,8.58,11.86,16.15,12.01-7.27,5.7-16.42,8.24-25.59,7.16Z"/>
</svg>