<?xml version="1.0" encoding="UTF-8"?>
<svg id="Layer_1" data-name="Layer 1" xmlns="http://www.w3.org/2000/svg" viewBox="0 0 104.94 100.34">
  <defs>
    <style>
      .cls-1 {
        fill: #565555;
        fill-rule: evenodd;
      }
    </style>
  </defs>
  <path class="cls-1" d="M94.83,48.03c-.56-22.32-18.96-40.25-41.59-40.25S12.64,25.29,11.67,47.27c-.02,.6-.04,1.21-.04,1.81,0,7.81,2.18,15.1,5.96,21.33l-7.5,22.15,23.05-7.33c5.96,3.27,12.82,5.14,20.1,5.14,22.99,0,41.61-18.49,41.61-41.3,0-.35,0-.7-.02-1.05Zm-41.59,35.77c-7.11,0-13.71-2.1-19.25-5.75l-13.44,4.29,4.36-12.9c-4.19-5.73-6.66-12.76-6.66-20.36,0-1.13,.06-2.26,.18-3.37,1.71-17.57,16.68-31.35,34.81-31.35s33.47,14.12,34.87,32.01c.08,.9,.12,1.79,.12,2.71,0,19.15-15.7,34.72-34.99,34.72Z"/>
  <path class="cls-1" d="M72.31,57.42c-1.03-.51-6.04-2.96-6.97-3.29-.94-.35-1.62-.51-2.3,.51-.68,1.01-2.65,3.29-3.23,3.95-.6,.68-1.19,.76-2.22,.25-1.01-.51-4.31-1.56-8.2-5.03-3.02-2.67-5.08-5.98-5.67-6.99-.58-1.01-.06-1.56,.45-2.07,.47-.47,1.01-1.19,1.54-1.77,.14-.17,.25-.33,.37-.49,.23-.37,.41-.72,.64-1.21,.35-.68,.18-1.27-.08-1.77-.25-.51-2.3-5.49-3.16-7.52-.84-2.03-1.69-1.68-2.3-1.68s-1.27-.1-1.95-.1-1.79,.25-2.73,1.27c-.93,1.01-3.56,3.47-3.56,8.45,0,1.17,.21,2.34,.53,3.45,1.03,3.56,3.25,6.51,3.64,7.01,.51,.66,7.05,11.22,17.42,15.29,10.38,4.03,10.38,2.69,12.25,2.51,1.87-.16,6.04-2.43,6.88-4.81,.86-2.36,.86-4.38,.6-4.81-.25-.41-.94-.66-1.95-1.17Z"/>
</svg>